Coordinates
version=1
nRows=4
nColumns=63
inDegrees=yes

Units are S.I. units (second, meters, Newtons, ...)
If the header above contains a line with 'inDegrees', this indicates whether rotational values are in degrees (yes) or radians (no).

endheader
time	pelvis_tilt	pelvis_list	pelvis_rotation	pelvis_tx	pelvis_ty	pelvis_tz	hip_flexion_r	hip_adduction_r	hip_rotation_r	knee_angle_r	knee_angle_r_beta	ankle_angle_r	subtalar_angle_r	mtp_angle_r	hip_flexion_l	hip_adduction_l	hip_rotation_l	knee_angle_l	knee_angle_l_beta	ankle_angle_l	subtalar_angle_l	mtp_angle_l	L5_S1_Flex_Ext	L5_S1_Lat_Bending	L5_S1_axial_rotation	L4_L5_Flex_Ext	L4_L5_Lat_Bending	L4_L5_axial_rotation	L3_L4_Flex_Ext	L3_L4_Lat_Bending	L3_L4_axial_rotation	L2_L3_Flex_Ext	L2_L3_Lat_Bending	L2_L3_axial_rotation	L1_L2_Flex_Ext	L1_L2_Lat_Bending	L1_L2_axial_rotation	L1_T12_Flex_Ext	L1_T12_Lat_Bending	L1_T12_axial_rotation	Abs_r3	Abs_r2	Abs_r1	Abs_t1	Abs_t2	neck_flexion	neck_bending	neck_rotation	arm_flex_r	arm_add_r	arm_rot_r	elbow_flex_r	pro_sup_r	wrist_flex_r	wrist_dev_r	arm_flex_l	arm_add_l	arm_rot_l	elbow_flex_l	pro_sup_l	wrist_flex_l	wrist_dev_l
      0.00000000	     -2.58744600	     -5.75433361	     97.52014956	      0.20207862	      0.87814761	      0.52378430	     -3.56984986	     -2.02520584	     -9.14004995	      7.25244284	      0.12657901	     18.70716068	      1.73187588	      0.00000000	     -2.62876251	      1.54328844	     -1.29462539	      4.18212085	      0.07299178	     15.68363652	      5.41116789	      0.00000000	      0.38886056	      0.01740884	     -1.77938021	      0.72215294	      0.02315375	     -1.89059147	      0.63885901	      0.04232785	     -1.89059147	      0.44442873	      0.04232785	     -1.55695768	      0.36109592	      0.03550010	     -1.44574642	      0.22219492	      0.02696629	     -1.33453516	      2.77759209	      0.19693225	     -9.89637892	      0.00000000	      0.00000000	     28.33038932	      3.26397032	      9.83419947	     25.54271741	     15.03081219	    146.28552543	     27.88310457	     89.21348829	    -18.98023578	     10.70217674	     33.79112870	      6.04373084	    134.20392650	     22.34686756	     86.87265745	    -13.53190964	    -10.13527976
      0.02000000	     -2.36570217	     -5.73482328	     97.55609142	      0.20122395	      0.87897272	      0.52582734	     -3.52084810	     -1.85638879	     -9.25522379	      7.08787150	      0.12370669	     18.33790103	      1.72171405	      0.00000000	     -2.40025409	      1.39344746	     -1.46627987	      4.38594278	      0.07654914	     15.60571356	      5.36842303	      0.00000000	      0.36429950	      0.05868524	     -1.75667870	      0.67654061	      0.07805136	     -1.86647111	      0.59850765	      0.14268728	     -1.86647111	      0.41635790	      0.14268728	     -1.53709386	      0.33828852	      0.11967093	     -1.42730144	      0.20816074	      0.09090343	     -1.31750902	      2.60215492	      0.66385912	     -9.77011990	      0.00000000	      0.00000000	     28.31569148	      3.25032221	     10.25772346	     26.26762618	     14.08087729	    144.07805210	     28.75413403	     89.25301160	    -18.84662799	     10.10022913	     33.05287939	      6.35664123	    133.90196856	     20.87573664	     87.02157235	    -12.05630413	    -11.55726140
      0.04000000	     -2.21070308	     -5.72173834	     97.42168730	      0.20058723	      0.87935737	      0.52685114	     -3.52225073	     -1.76829757	     -9.24325443	      6.89729806	      0.12038056	     18.11922351	      2.01725272	      0.00000000	     -2.31199378	      1.31108490	     -1.69377499	      4.46541687	      0.07793623	     15.63576438	      5.34438253	      0.00000000	      0.35585202	      0.08623000	     -1.68390208	      0.66085278	      0.11468590	     -1.78914596	      0.58462928	      0.20965962	     -1.78914596	      0.40670327	      0.20965962	     -1.47341432	      0.33044418	      0.17584021	     -1.36817044	      0.20333384	      0.13357027	     -1.26292656	      2.54181536	      0.97545099	     -9.36535819	      0.00000000	      0.00000000	     28.30914611	      2.89369653	      9.92852089	     27.01708881	     12.91567656	    140.93314749	     29.95995997	     89.31893788	    -17.67258949	      9.88460880	     32.28215432	      6.82908424	    133.43792349	     19.31217103	     86.62995283	     -9.49424526	    -12.97021421
      0.06000000	     -2.15401595	     -5.73709136	     97.27301439	      0.20003431	      0.87924383	      0.52724010	     -3.54708896	     -1.79194957	     -9.50752814	      6.70203939	      0.11697265	     18.11829179	      2.80638830	      0.00000000	     -2.26687561	      1.32654970	     -1.91446842	      4.50368496	      0.07860413	     15.72307585	      5.34962589	      0.00000000	      0.36030124	      0.09631892	     -1.59344129	      0.66911543	      0.12810416	     -1.69303137	      0.59193890	      0.23418982	     -1.69303137	      0.41178828	      0.23418982	     -1.39426113	      0.33457573	      0.19641354	     -1.29467105	      0.20587613	      0.14919801	     -1.19508097	      2.57359570	      1.08957888	     -8.86224241	      0.00000000	      0.00000000	     28.31015585	      2.36188059	      9.08439681	     27.89216138	     11.47042839	    136.01803208	     32.18165960	     89.39586507	    -13.35670164	     12.32063059	     31.74238359	      7.20267768	    132.55493281	     18.42212358	     85.91349470	     -6.22538543	    -13.44348627
